<svg xmlns="http://www.w3.org/2000/svg" width="1040" height="420" viewBox="0 0 1040 420">
<rect width="100%" height="100%" fill="#fff"/>
<text x="75" y="32" font-family="Arial" font-size="22" font-weight="700">Daily AWS Spend, 2026-02-20 to 2026-05-20</text>
<line x1="75" y1="350.0" x2="1005" y2="350.0" stroke="#eef2f7"/>
<text x="67" y="354.0" text-anchor="end" font-family="Arial" font-size="11" fill="#6b7280">$0</text>
<line x1="75" y1="277.0" x2="1005" y2="277.0" stroke="#eef2f7"/>
<text x="67" y="281.0" text-anchor="end" font-family="Arial" font-size="11" fill="#6b7280">$463</text>
<line x1="75" y1="204.0" x2="1005" y2="204.0" stroke="#eef2f7"/>
<text x="67" y="208.0" text-anchor="end" font-family="Arial" font-size="11" fill="#6b7280">$925</text>
<line x1="75" y1="131.0" x2="1005" y2="131.0" stroke="#eef2f7"/>
<text x="67" y="135.0" text-anchor="end" font-family="Arial" font-size="11" fill="#6b7280">$1,388</text>
<line x1="75" y1="58.0" x2="1005" y2="58.0" stroke="#eef2f7"/>
<text x="67" y="62.0" text-anchor="end" font-family="Arial" font-size="11" fill="#6b7280">$1,851</text>
<polyline fill="none" stroke="#2563eb" stroke-width="3" points="75.0,85.8 85.4,170.4 95.9,166.9 106.3,253.7 116.8,197.0 127.2,304.2 137.7,318.5 148.1,339.4 158.6,339.2 169.0,319.4 179.5,339.7 189.9,338.9 200.4,338.7 210.8,338.7 221.3,338.7 231.7,338.7 242.2,338.5 252.6,336.8 263.1,327.0 273.5,333.8 284.0,333.7 294.4,334.6 304.9,334.9 315.3,334.9 325.8,334.9 336.2,334.9 346.7,334.9 357.1,334.2 367.6,333.6 378.0,334.5 388.5,331.9 398.9,321.5 409.4,322.1 419.8,254.1 430.3,318.2 440.7,319.0 451.2,320.0 461.6,320.0 472.1,320.0 482.5,319.8 493.0,255.4 503.4,319.2 513.9,319.2 524.3,318.8 534.8,319.8 545.2,319.7 555.7,316.0 566.1,316.2 576.6,311.8 587.0,311.0 597.5,314.9 607.9,311.8 618.4,307.7 628.8,308.3 639.3,310.9 649.7,312.8 660.2,312.5 670.6,313.8 681.1,313.8 691.5,312.4 702.0,280.5 712.4,279.8 722.9,273.9 733.3,257.8 743.8,260.3 754.2,294.7 764.7,285.5 775.1,284.5 785.6,293.0 796.0,291.1 806.5,223.3 816.9,293.1 827.4,291.7 837.8,241.8 848.3,277.5 858.7,277.2 869.2,267.3 879.6,284.3 890.1,273.1 900.5,280.8 911.0,133.0 921.4,243.7 931.9,236.8 942.3,261.8 952.8,247.6 963.2,98.4 973.7,190.6 984.1,58.0 994.6,249.9 1005.0,158.3"/>
<text x="75.0" y="385" text-anchor="middle" font-family="Arial" font-size="11" fill="#6b7280">02-20</text>
<text x="179.5" y="385" text-anchor="middle" font-family="Arial" font-size="11" fill="#6b7280">03-02</text>
<text x="284.0" y="385" text-anchor="middle" font-family="Arial" font-size="11" fill="#6b7280">03-12</text>
<text x="388.5" y="385" text-anchor="middle" font-family="Arial" font-size="11" fill="#6b7280">03-22</text>
<text x="493.0" y="385" text-anchor="middle" font-family="Arial" font-size="11" fill="#6b7280">04-01</text>
<text x="597.5" y="385" text-anchor="middle" font-family="Arial" font-size="11" fill="#6b7280">04-11</text>
<text x="702.0" y="385" text-anchor="middle" font-family="Arial" font-size="11" fill="#6b7280">04-21</text>
<text x="806.5" y="385" text-anchor="middle" font-family="Arial" font-size="11" fill="#6b7280">05-01</text>
<text x="911.0" y="385" text-anchor="middle" font-family="Arial" font-size="11" fill="#6b7280">05-11</text>
</svg>