<svg xmlns="http://www.w3.org/2000/svg" width="1040" height="520" viewBox="0 0 1040 520">
<rect width="100%" height="100%" fill="#fff"/>
<text x="285" y="32" font-family="Arial" font-size="22" font-weight="700">Savings Candidate Estimated Monthly Run-Rate</text>
<text x="275" y="75.1" text-anchor="end" font-family="Arial" font-size="13" fill="#111827">EBS vol-042a5f5daead20490</text>
<rect x="285" y="62.0" width="11.9" height="18.4" rx="2" fill="#2563eb"/>
<text x="302.9" y="75.1" font-family="Arial" font-size="12" fill="#374151">$34</text>
<text x="275" y="101.5" text-anchor="end" font-family="Arial" font-size="13" fill="#111827">EBS vol-067169329e7a92af1</text>
<rect x="285" y="88.4" width="11.9" height="18.4" rx="2" fill="#16a34a"/>
<text x="302.9" y="101.5" font-family="Arial" font-size="12" fill="#374151">$34</text>
<text x="275" y="127.9" text-anchor="end" font-family="Arial" font-size="13" fill="#111827">EBS vol-0c90d4fbaada3820a</text>
<rect x="285" y="114.8" width="11.9" height="18.4" rx="2" fill="#dc2626"/>
<text x="302.9" y="127.9" font-family="Arial" font-size="12" fill="#374151">$34</text>
<text x="275" y="154.3" text-anchor="end" font-family="Arial" font-size="13" fill="#111827">EBS vol-0f5e5d7eec5982fa8</text>
<rect x="285" y="141.1" width="11.9" height="18.4" rx="2" fill="#ca8a04"/>
<text x="302.9" y="154.3" font-family="Arial" font-size="12" fill="#374151">$34</text>
<text x="275" y="180.6" text-anchor="end" font-family="Arial" font-size="13" fill="#111827">EC2 eipalloc-02ef5760f8f8700fd</text>
<rect x="285" y="167.5" width="1.3" height="18.4" rx="2" fill="#7c3aed"/>
<text x="292.3" y="180.6" font-family="Arial" font-size="12" fill="#374151">$4</text>
<text x="275" y="207.0" text-anchor="end" font-family="Arial" font-size="13" fill="#111827">FSx fs-01c4180aab049f24c</text>
<rect x="285" y="193.9" width="710.0" height="18.4" rx="2" fill="#0891b2"/>
<text x="1001.0" y="207.0" font-family="Arial" font-size="12" fill="#374151">$2,016</text>
<text x="275" y="233.4" text-anchor="end" font-family="Arial" font-size="13" fill="#111827">FSx fs-017ab7a7cdbf44c54</text>
<rect x="285" y="220.2" width="591.7" height="18.4" rx="2" fill="#db2777"/>
<text x="882.7" y="233.4" font-family="Arial" font-size="12" fill="#374151">$1,680</text>
<text x="275" y="259.8" text-anchor="end" font-family="Arial" font-size="13" fill="#111827">VPC nat-00246c8ef3b9087f1</text>
<rect x="285" y="246.6" width="11.4" height="18.4" rx="2" fill="#4b5563"/>
<text x="302.4" y="259.8" font-family="Arial" font-size="12" fill="#374151">$32</text>
<text x="275" y="286.1" text-anchor="end" font-family="Arial" font-size="13" fill="#111827">VPC nat-00ac08b685fea726f</text>
<rect x="285" y="273.0" width="11.4" height="18.4" rx="2" fill="#ea580c"/>
<text x="302.4" y="286.1" font-family="Arial" font-size="12" fill="#374151">$32</text>
<text x="275" y="312.5" text-anchor="end" font-family="Arial" font-size="13" fill="#111827">VPC nat-00f3c26e43ede9b10</text>
<rect x="285" y="299.4" width="11.4" height="18.4" rx="2" fill="#059669"/>
<text x="302.4" y="312.5" font-family="Arial" font-size="12" fill="#374151">$32</text>
<text x="275" y="338.9" text-anchor="end" font-family="Arial" font-size="13" fill="#111827">VPC nat-01dc061291fc51e75</text>
<rect x="285" y="325.8" width="11.4" height="18.4" rx="2" fill="#2563eb"/>
<text x="302.4" y="338.9" font-family="Arial" font-size="12" fill="#374151">$32</text>
<text x="275" y="365.3" text-anchor="end" font-family="Arial" font-size="13" fill="#111827">VPC nat-0234e77781575cced</text>
<rect x="285" y="352.1" width="11.4" height="18.4" rx="2" fill="#16a34a"/>
<text x="302.4" y="365.3" font-family="Arial" font-size="12" fill="#374151">$32</text>
<text x="275" y="391.6" text-anchor="end" font-family="Arial" font-size="13" fill="#111827">VPC nat-02c9c39356256ee15</text>
<rect x="285" y="378.5" width="11.4" height="18.4" rx="2" fill="#dc2626"/>
<text x="302.4" y="391.6" font-family="Arial" font-size="12" fill="#374151">$32</text>
<text x="275" y="418.0" text-anchor="end" font-family="Arial" font-size="13" fill="#111827">VPC nat-05f85018216cac061</text>
<rect x="285" y="404.9" width="11.4" height="18.4" rx="2" fill="#ca8a04"/>
<text x="302.4" y="418.0" font-family="Arial" font-size="12" fill="#374151">$32</text>
<text x="275" y="444.4" text-anchor="end" font-family="Arial" font-size="13" fill="#111827">VPC nat-0968cd814fed8bfff</text>
<rect x="285" y="431.2" width="11.4" height="18.4" rx="2" fill="#7c3aed"/>
<text x="302.4" y="444.4" font-family="Arial" font-size="12" fill="#374151">$32</text>
<text x="275" y="470.8" text-anchor="end" font-family="Arial" font-size="13" fill="#111827">VPC nat-0a2bfbfedf38f8e87</text>
<rect x="285" y="457.6" width="11.4" height="18.4" rx="2" fill="#0891b2"/>
<text x="302.4" y="470.8" font-family="Arial" font-size="12" fill="#374151">$32</text>
</svg>