<svg xmlns="http://www.w3.org/2000/svg" width="1040" height="520" viewBox="0 0 1040 520">
<rect width="100%" height="100%" fill="#fff"/>
<text x="285" y="32" font-family="Arial" font-size="22" font-weight="700">Top Regions, 90-Day Spend</text>
<text x="275" y="75.1" text-anchor="end" font-family="Arial" font-size="13" fill="#111827">us-west-2</text>
<rect x="285" y="62.0" width="710.0" height="18.4" rx="2" fill="#2563eb"/>
<text x="1001.0" y="75.1" font-family="Arial" font-size="12" fill="#374151">$31,765</text>
<text x="275" y="101.5" text-anchor="end" font-family="Arial" font-size="13" fill="#111827">us-east-1</text>
<rect x="285" y="88.4" width="33.8" height="18.4" rx="2" fill="#16a34a"/>
<text x="324.8" y="101.5" font-family="Arial" font-size="12" fill="#374151">$1,512</text>
<text x="275" y="127.9" text-anchor="end" font-family="Arial" font-size="13" fill="#111827">global</text>
<rect x="285" y="114.8" width="22.7" height="18.4" rx="2" fill="#dc2626"/>
<text x="313.7" y="127.9" font-family="Arial" font-size="12" fill="#374151">$1,016</text>
<text x="275" y="154.3" text-anchor="end" font-family="Arial" font-size="13" fill="#111827">eu-central-1</text>
<rect x="285" y="141.1" width="8.4" height="18.4" rx="2" fill="#ca8a04"/>
<text x="299.4" y="154.3" font-family="Arial" font-size="12" fill="#374151">$376</text>
<text x="275" y="180.6" text-anchor="end" font-family="Arial" font-size="13" fill="#111827">ap-south-1</text>
<rect x="285" y="167.5" width="7.2" height="18.4" rx="2" fill="#7c3aed"/>
<text x="298.2" y="180.6" font-family="Arial" font-size="12" fill="#374151">$322</text>
<text x="275" y="207.0" text-anchor="end" font-family="Arial" font-size="13" fill="#111827">sa-east-1</text>
<rect x="285" y="193.9" width="0.1" height="18.4" rx="2" fill="#0891b2"/>
<text x="291.1" y="207.0" font-family="Arial" font-size="12" fill="#374151">$4</text>
<text x="275" y="233.4" text-anchor="end" font-family="Arial" font-size="13" fill="#111827">ap-northeast-3</text>
<rect x="285" y="220.2" width="0.1" height="18.4" rx="2" fill="#db2777"/>
<text x="291.1" y="233.4" font-family="Arial" font-size="12" fill="#374151">$4</text>
<text x="275" y="259.8" text-anchor="end" font-family="Arial" font-size="13" fill="#111827">ap-northeast-1</text>
<rect x="285" y="246.6" width="0.1" height="18.4" rx="2" fill="#4b5563"/>
<text x="291.1" y="259.8" font-family="Arial" font-size="12" fill="#374151">$4</text>
<text x="275" y="286.1" text-anchor="end" font-family="Arial" font-size="13" fill="#111827">ap-northeast-2</text>
<rect x="285" y="273.0" width="0.1" height="18.4" rx="2" fill="#ea580c"/>
<text x="291.1" y="286.1" font-family="Arial" font-size="12" fill="#374151">$4</text>
<text x="275" y="312.5" text-anchor="end" font-family="Arial" font-size="13" fill="#111827">ap-southeast-2</text>
<rect x="285" y="299.4" width="0.1" height="18.4" rx="2" fill="#059669"/>
<text x="291.1" y="312.5" font-family="Arial" font-size="12" fill="#374151">$4</text>
<text x="275" y="338.9" text-anchor="end" font-family="Arial" font-size="13" fill="#111827">ap-southeast-1</text>
<rect x="285" y="325.8" width="0.1" height="18.4" rx="2" fill="#2563eb"/>
<text x="291.1" y="338.9" font-family="Arial" font-size="12" fill="#374151">$4</text>
<text x="275" y="365.3" text-anchor="end" font-family="Arial" font-size="13" fill="#111827">ca-central-1</text>
<rect x="285" y="352.1" width="0.1" height="18.4" rx="2" fill="#16a34a"/>
<text x="291.1" y="365.3" font-family="Arial" font-size="12" fill="#374151">$4</text>
<text x="275" y="391.6" text-anchor="end" font-family="Arial" font-size="13" fill="#111827">eu-west-1</text>
<rect x="285" y="378.5" width="0.1" height="18.4" rx="2" fill="#dc2626"/>
<text x="291.1" y="391.6" font-family="Arial" font-size="12" fill="#374151">$4</text>
<text x="275" y="418.0" text-anchor="end" font-family="Arial" font-size="13" fill="#111827">eu-west-2</text>
<rect x="285" y="404.9" width="0.1" height="18.4" rx="2" fill="#ca8a04"/>
<text x="291.1" y="418.0" font-family="Arial" font-size="12" fill="#374151">$4</text>
<text x="275" y="444.4" text-anchor="end" font-family="Arial" font-size="13" fill="#111827">eu-west-3</text>
<rect x="285" y="431.2" width="0.1" height="18.4" rx="2" fill="#7c3aed"/>
<text x="291.1" y="444.4" font-family="Arial" font-size="12" fill="#374151">$4</text>
<text x="275" y="470.8" text-anchor="end" font-family="Arial" font-size="13" fill="#111827">us-west-1</text>
<rect x="285" y="457.6" width="0.1" height="18.4" rx="2" fill="#0891b2"/>
<text x="291.1" y="470.8" font-family="Arial" font-size="12" fill="#374151">$4</text>
</svg>