<svg xmlns="http://www.w3.org/2000/svg" width="1040" height="520" viewBox="0 0 1040 520">
<rect width="100%" height="100%" fill="#fff"/>
<text x="285" y="32" font-family="Arial" font-size="22" font-weight="700">Top Services, 90-Day Spend</text>
<text x="275" y="75.1" text-anchor="end" font-family="Arial" font-size="13" fill="#111827">Amazon Elastic Compute Cloud - Compute</text>
<rect x="285" y="62.0" width="710.0" height="18.4" rx="2" fill="#2563eb"/>
<text x="1001.0" y="75.1" font-family="Arial" font-size="12" fill="#374151">$15,308</text>
<text x="275" y="101.5" text-anchor="end" font-family="Arial" font-size="13" fill="#111827">Amazon FSx</text>
<rect x="285" y="88.4" width="443.5" height="18.4" rx="2" fill="#16a34a"/>
<text x="734.5" y="101.5" font-family="Arial" font-size="12" fill="#374151">$9,563</text>
<text x="275" y="127.9" text-anchor="end" font-family="Arial" font-size="13" fill="#111827">Amazon Simple Storage Service</text>
<rect x="285" y="114.8" width="210.2" height="18.4" rx="2" fill="#dc2626"/>
<text x="501.2" y="127.9" font-family="Arial" font-size="12" fill="#374151">$4,532</text>
<text x="275" y="154.3" text-anchor="end" font-family="Arial" font-size="13" fill="#111827">EC2 - Other</text>
<rect x="285" y="141.1" width="101.6" height="18.4" rx="2" fill="#ca8a04"/>
<text x="392.6" y="154.3" font-family="Arial" font-size="12" fill="#374151">$2,190</text>
<text x="275" y="180.6" text-anchor="end" font-family="Arial" font-size="13" fill="#111827">Amazon Relational Database Service</text>
<rect x="285" y="167.5" width="70.6" height="18.4" rx="2" fill="#7c3aed"/>
<text x="361.6" y="180.6" font-family="Arial" font-size="12" fill="#374151">$1,523</text>
<text x="275" y="207.0" text-anchor="end" font-family="Arial" font-size="13" fill="#111827">AWS Support (Developer)</text>
<rect x="285" y="193.9" width="38.0" height="18.4" rx="2" fill="#0891b2"/>
<text x="329.0" y="207.0" font-family="Arial" font-size="12" fill="#374151">$819</text>
<text x="275" y="233.4" text-anchor="end" font-family="Arial" font-size="13" fill="#111827">AWS Security Hub</text>
<rect x="285" y="220.2" width="14.7" height="18.4" rx="2" fill="#db2777"/>
<text x="305.7" y="233.4" font-family="Arial" font-size="12" fill="#374151">$317</text>
<text x="275" y="259.8" text-anchor="end" font-family="Arial" font-size="13" fill="#111827">Amazon Virtual Private Cloud</text>
<rect x="285" y="246.6" width="14.0" height="18.4" rx="2" fill="#4b5563"/>
<text x="305.0" y="259.8" font-family="Arial" font-size="12" fill="#374151">$301</text>
<text x="275" y="286.1" text-anchor="end" font-family="Arial" font-size="13" fill="#111827">Amazon Registrar</text>
<rect x="285" y="273.0" width="6.0" height="18.4" rx="2" fill="#ea580c"/>
<text x="297.0" y="286.1" font-family="Arial" font-size="12" fill="#374151">$130</text>
<text x="275" y="312.5" text-anchor="end" font-family="Arial" font-size="13" fill="#111827">Amazon Elastic Container Service</text>
<rect x="285" y="299.4" width="4.4" height="18.4" rx="2" fill="#059669"/>
<text x="295.4" y="312.5" font-family="Arial" font-size="12" fill="#374151">$95</text>
<text x="275" y="338.9" text-anchor="end" font-family="Arial" font-size="13" fill="#111827">Amazon Elastic Load Balancing</text>
<rect x="285" y="325.8" width="3.5" height="18.4" rx="2" fill="#2563eb"/>
<text x="294.5" y="338.9" font-family="Arial" font-size="12" fill="#374151">$75</text>
<text x="275" y="365.3" text-anchor="end" font-family="Arial" font-size="13" fill="#111827">AmazonCloudWatch</text>
<rect x="285" y="352.1" width="2.4" height="18.4" rx="2" fill="#16a34a"/>
<text x="293.4" y="365.3" font-family="Arial" font-size="12" fill="#374151">$51</text>
<text x="275" y="391.6" text-anchor="end" font-family="Arial" font-size="13" fill="#111827">Amazon Route 53</text>
<rect x="285" y="378.5" width="1.8" height="18.4" rx="2" fill="#dc2626"/>
<text x="292.8" y="391.6" font-family="Arial" font-size="12" fill="#374151">$39</text>
<text x="275" y="418.0" text-anchor="end" font-family="Arial" font-size="13" fill="#111827">Amazon GuardDuty</text>
<rect x="285" y="404.9" width="1.7" height="18.4" rx="2" fill="#ca8a04"/>
<text x="292.7" y="418.0" font-family="Arial" font-size="12" fill="#374151">$37</text>
<text x="275" y="444.4" text-anchor="end" font-family="Arial" font-size="13" fill="#111827">AWS WAF</text>
<rect x="285" y="431.2" width="1.6" height="18.4" rx="2" fill="#7c3aed"/>
<text x="292.6" y="444.4" font-family="Arial" font-size="12" fill="#374151">$35</text>
<text x="275" y="470.8" text-anchor="end" font-family="Arial" font-size="13" fill="#111827">AWS Secrets Manager</text>
<rect x="285" y="457.6" width="0.7" height="18.4" rx="2" fill="#0891b2"/>
<text x="291.7" y="470.8" font-family="Arial" font-size="12" fill="#374151">$14</text>
</svg>