<svg xmlns="http://www.w3.org/2000/svg" width="1120" height="520" viewBox="0 0 1120 520">
<rect width="100%" height="100%" fill="#fff"/>
<text x="85" y="32" font-family="Arial" font-size="22" font-weight="700">Weekly Spend by Top Service</text>
<line x1="85" y1="434.0" x2="860" y2="434.0" stroke="#eef2f7"/>
<text x="77" y="438.0" text-anchor="end" font-family="Arial" font-size="11" fill="#6b7280">$0</text>
<line x1="85" y1="340.0" x2="860" y2="340.0" stroke="#eef2f7"/>
<text x="77" y="344.0" text-anchor="end" font-family="Arial" font-size="11" fill="#6b7280">$1,645</text>
<line x1="85" y1="246.0" x2="860" y2="246.0" stroke="#eef2f7"/>
<text x="77" y="250.0" text-anchor="end" font-family="Arial" font-size="11" fill="#6b7280">$3,289</text>
<line x1="85" y1="152.0" x2="860" y2="152.0" stroke="#eef2f7"/>
<text x="77" y="156.0" text-anchor="end" font-family="Arial" font-size="11" fill="#6b7280">$4,934</text>
<line x1="85" y1="58.0" x2="860" y2="58.0" stroke="#eef2f7"/>
<text x="77" y="62.0" text-anchor="end" font-family="Arial" font-size="11" fill="#6b7280">$6,579</text>
<rect x="93.3" y="244.5" width="38.7" height="189.5" fill="#2563eb"/>
<rect x="93.3" y="218.6" width="38.7" height="25.9" fill="#16a34a"/>
<rect x="93.3" y="213.5" width="38.7" height="5.1" fill="#dc2626"/>
<rect x="93.3" y="207.4" width="38.7" height="6.1" fill="#ca8a04"/>
<rect x="93.3" y="207.4" width="38.7" height="0.0" fill="#7c3aed"/>
<rect x="93.3" y="207.4" width="38.7" height="0.0" fill="#0891b2"/>
<rect x="93.3" y="207.4" width="38.7" height="0.0" fill="#db2777"/>
<rect x="93.3" y="206.9" width="38.7" height="0.5" fill="#4b5563"/>
<text x="112.7" y="472" text-anchor="middle" font-family="Arial" font-size="10" fill="#6b7280" transform="rotate(-35 112.7,472)">02-16</text>
<rect x="148.7" y="354.7" width="38.7" height="79.3" fill="#2563eb"/>
<rect x="148.7" y="328.5" width="38.7" height="26.2" fill="#16a34a"/>
<rect x="148.7" y="315.7" width="38.7" height="12.8" fill="#dc2626"/>
<rect x="148.7" y="306.3" width="38.7" height="9.4" fill="#ca8a04"/>
<rect x="148.7" y="305.8" width="38.7" height="0.5" fill="#7c3aed"/>
<rect x="148.7" y="298.9" width="38.7" height="6.9" fill="#0891b2"/>
<rect x="148.7" y="298.8" width="38.7" height="0.0" fill="#db2777"/>
<rect x="148.7" y="296.9" width="38.7" height="1.9" fill="#4b5563"/>
<text x="168.0" y="472" text-anchor="middle" font-family="Arial" font-size="10" fill="#6b7280" transform="rotate(-35 168.0,472)">02-23</text>
<rect x="204.0" y="430.1" width="38.7" height="3.9" fill="#2563eb"/>
<rect x="204.0" y="430.1" width="38.7" height="0.0" fill="#16a34a"/>
<rect x="204.0" y="418.4" width="38.7" height="11.7" fill="#dc2626"/>
<rect x="204.0" y="410.7" width="38.7" height="7.7" fill="#ca8a04"/>
<rect x="204.0" y="407.4" width="38.7" height="3.2" fill="#7c3aed"/>
<rect x="204.0" y="407.4" width="38.7" height="0.0" fill="#0891b2"/>
<rect x="204.0" y="407.4" width="38.7" height="0.0" fill="#db2777"/>
<rect x="204.0" y="405.7" width="38.7" height="1.7" fill="#4b5563"/>
<text x="223.4" y="472" text-anchor="middle" font-family="Arial" font-size="10" fill="#6b7280" transform="rotate(-35 223.4,472)">03-02</text>
<rect x="259.4" y="424.6" width="38.7" height="9.4" fill="#2563eb"/>
<rect x="259.4" y="420.6" width="38.7" height="4.0" fill="#16a34a"/>
<rect x="259.4" y="408.7" width="38.7" height="11.9" fill="#dc2626"/>
<rect x="259.4" y="400.1" width="38.7" height="8.5" fill="#ca8a04"/>
<rect x="259.4" y="395.2" width="38.7" height="5.0" fill="#7c3aed"/>
<rect x="259.4" y="395.2" width="38.7" height="0.0" fill="#0891b2"/>
<rect x="259.4" y="394.7" width="38.7" height="0.5" fill="#db2777"/>
<rect x="259.4" y="392.6" width="38.7" height="2.1" fill="#4b5563"/>
<text x="278.8" y="472" text-anchor="middle" font-family="Arial" font-size="10" fill="#6b7280" transform="rotate(-35 278.8,472)">03-09</text>
<rect x="314.7" y="427.1" width="38.7" height="6.9" fill="#2563eb"/>
<rect x="314.7" y="422.7" width="38.7" height="4.3" fill="#16a34a"/>
<rect x="314.7" y="410.8" width="38.7" height="11.9" fill="#dc2626"/>
<rect x="314.7" y="402.0" width="38.7" height="8.8" fill="#ca8a04"/>
<rect x="314.7" y="396.9" width="38.7" height="5.1" fill="#7c3aed"/>
<rect x="314.7" y="396.9" width="38.7" height="0.0" fill="#0891b2"/>
<rect x="314.7" y="396.0" width="38.7" height="0.9" fill="#db2777"/>
<rect x="314.7" y="393.7" width="38.7" height="2.3" fill="#4b5563"/>
<text x="334.1" y="472" text-anchor="middle" font-family="Arial" font-size="10" fill="#6b7280" transform="rotate(-35 334.1,472)">03-16</text>
<rect x="370.1" y="401.2" width="38.7" height="32.8" fill="#2563eb"/>
<rect x="370.1" y="370.1" width="38.7" height="31.1" fill="#16a34a"/>
<rect x="370.1" y="357.9" width="38.7" height="12.2" fill="#dc2626"/>
<rect x="370.1" y="347.2" width="38.7" height="10.7" fill="#ca8a04"/>
<rect x="370.1" y="342.0" width="38.7" height="5.2" fill="#7c3aed"/>
<rect x="370.1" y="342.0" width="38.7" height="0.0" fill="#0891b2"/>
<rect x="370.1" y="337.5" width="38.7" height="4.5" fill="#db2777"/>
<rect x="370.1" y="334.3" width="38.7" height="3.2" fill="#4b5563"/>
<text x="389.5" y="472" text-anchor="middle" font-family="Arial" font-size="10" fill="#6b7280" transform="rotate(-35 389.5,472)">03-23</text>
<rect x="425.4" y="422.6" width="38.7" height="11.4" fill="#2563eb"/>
<rect x="425.4" y="387.1" width="38.7" height="35.5" fill="#16a34a"/>
<rect x="425.4" y="374.4" width="38.7" height="12.6" fill="#dc2626"/>
<rect x="425.4" y="365.3" width="38.7" height="9.1" fill="#ca8a04"/>
<rect x="425.4" y="360.0" width="38.7" height="5.3" fill="#7c3aed"/>
<rect x="425.4" y="345.1" width="38.7" height="14.9" fill="#0891b2"/>
<rect x="425.4" y="344.3" width="38.7" height="0.8" fill="#db2777"/>
<rect x="425.4" y="333.4" width="38.7" height="10.9" fill="#4b5563"/>
<text x="444.8" y="472" text-anchor="middle" font-family="Arial" font-size="10" fill="#6b7280" transform="rotate(-35 444.8,472)">03-30</text>
<rect x="480.8" y="418.4" width="38.7" height="15.6" fill="#2563eb"/>
<rect x="480.8" y="380.5" width="38.7" height="37.9" fill="#16a34a"/>
<rect x="480.8" y="361.7" width="38.7" height="18.8" fill="#dc2626"/>
<rect x="480.8" y="353.1" width="38.7" height="8.6" fill="#ca8a04"/>
<rect x="480.8" y="347.8" width="38.7" height="5.3" fill="#7c3aed"/>
<rect x="480.8" y="347.8" width="38.7" height="0.0" fill="#0891b2"/>
<rect x="480.8" y="346.7" width="38.7" height="1.1" fill="#db2777"/>
<rect x="480.8" y="343.9" width="38.7" height="2.8" fill="#4b5563"/>
<text x="500.2" y="472" text-anchor="middle" font-family="Arial" font-size="10" fill="#6b7280" transform="rotate(-35 500.2,472)">04-06</text>
<rect x="536.2" y="417.9" width="38.7" height="16.1" fill="#2563eb"/>
<rect x="536.2" y="376.3" width="38.7" height="41.6" fill="#16a34a"/>
<rect x="536.2" y="355.6" width="38.7" height="20.7" fill="#dc2626"/>
<rect x="536.2" y="347.0" width="38.7" height="8.7" fill="#ca8a04"/>
<rect x="536.2" y="340.0" width="38.7" height="7.0" fill="#7c3aed"/>
<rect x="536.2" y="340.0" width="38.7" height="0.0" fill="#0891b2"/>
<rect x="536.2" y="338.9" width="38.7" height="1.1" fill="#db2777"/>
<rect x="536.2" y="336.1" width="38.7" height="2.7" fill="#4b5563"/>
<text x="555.5" y="472" text-anchor="middle" font-family="Arial" font-size="10" fill="#6b7280" transform="rotate(-35 555.5,472)">04-13</text>
<rect x="591.5" y="375.9" width="38.7" height="58.1" fill="#2563eb"/>
<rect x="591.5" y="301.4" width="38.7" height="74.5" fill="#16a34a"/>
<rect x="591.5" y="279.0" width="38.7" height="22.5" fill="#dc2626"/>
<rect x="591.5" y="268.7" width="38.7" height="10.3" fill="#ca8a04"/>
<rect x="591.5" y="260.8" width="38.7" height="7.8" fill="#7c3aed"/>
<rect x="591.5" y="260.8" width="38.7" height="0.0" fill="#0891b2"/>
<rect x="591.5" y="259.2" width="38.7" height="1.7" fill="#db2777"/>
<rect x="591.5" y="256.3" width="38.7" height="2.9" fill="#4b5563"/>
<text x="610.9" y="472" text-anchor="middle" font-family="Arial" font-size="10" fill="#6b7280" transform="rotate(-35 610.9,472)">04-20</text>
<rect x="646.9" y="405.8" width="38.7" height="28.2" fill="#2563eb"/>
<rect x="646.9" y="329.1" width="38.7" height="76.7" fill="#16a34a"/>
<rect x="646.9" y="304.9" width="38.7" height="24.1" fill="#dc2626"/>
<rect x="646.9" y="295.3" width="38.7" height="9.6" fill="#ca8a04"/>
<rect x="646.9" y="287.3" width="38.7" height="7.9" fill="#7c3aed"/>
<rect x="646.9" y="262.4" width="38.7" height="25.0" fill="#0891b2"/>
<rect x="646.9" y="261.1" width="38.7" height="1.3" fill="#db2777"/>
<rect x="646.9" y="257.4" width="38.7" height="3.8" fill="#4b5563"/>
<text x="666.2" y="472" text-anchor="middle" font-family="Arial" font-size="10" fill="#6b7280" transform="rotate(-35 666.2,472)">04-27</text>
<rect x="702.2" y="368.8" width="38.7" height="65.2" fill="#2563eb"/>
<rect x="702.2" y="288.1" width="38.7" height="80.6" fill="#16a34a"/>
<rect x="702.2" y="259.2" width="38.7" height="29.0" fill="#dc2626"/>
<rect x="702.2" y="248.5" width="38.7" height="10.6" fill="#ca8a04"/>
<rect x="702.2" y="240.5" width="38.7" height="8.0" fill="#7c3aed"/>
<rect x="702.2" y="240.5" width="38.7" height="0.0" fill="#0891b2"/>
<rect x="702.2" y="238.6" width="38.7" height="1.9" fill="#db2777"/>
<rect x="702.2" y="235.5" width="38.7" height="3.2" fill="#4b5563"/>
<text x="721.6" y="472" text-anchor="middle" font-family="Arial" font-size="10" fill="#6b7280" transform="rotate(-35 721.6,472)">05-04</text>
<rect x="757.6" y="216.1" width="38.7" height="217.9" fill="#2563eb"/>
<rect x="757.6" y="131.4" width="38.7" height="84.7" fill="#16a34a"/>
<rect x="757.6" y="88.9" width="38.7" height="42.4" fill="#dc2626"/>
<rect x="757.6" y="77.0" width="38.7" height="11.9" fill="#ca8a04"/>
<rect x="757.6" y="66.6" width="38.7" height="10.4" fill="#7c3aed"/>
<rect x="757.6" y="66.6" width="38.7" height="0.0" fill="#0891b2"/>
<rect x="757.6" y="63.5" width="38.7" height="3.1" fill="#db2777"/>
<rect x="757.6" y="58.0" width="38.7" height="5.5" fill="#4b5563"/>
<text x="777.0" y="472" text-anchor="middle" font-family="Arial" font-size="10" fill="#6b7280" transform="rotate(-35 777.0,472)">05-11</text>
<rect x="812.9" y="293.4" width="38.7" height="140.6" fill="#2563eb"/>
<rect x="812.9" y="269.9" width="38.7" height="23.5" fill="#16a34a"/>
<rect x="812.9" y="246.8" width="38.7" height="23.1" fill="#dc2626"/>
<rect x="812.9" y="241.7" width="38.7" height="5.0" fill="#ca8a04"/>
<rect x="812.9" y="225.5" width="38.7" height="16.2" fill="#7c3aed"/>
<rect x="812.9" y="225.5" width="38.7" height="0.0" fill="#0891b2"/>
<rect x="812.9" y="224.3" width="38.7" height="1.2" fill="#db2777"/>
<rect x="812.9" y="222.5" width="38.7" height="1.7" fill="#4b5563"/>
<text x="832.3" y="472" text-anchor="middle" font-family="Arial" font-size="10" fill="#6b7280" transform="rotate(-35 832.3,472)">05-18</text>
<rect x="880" y="58" width="14" height="14" fill="#2563eb"/><text x="900" y="70" font-family="Arial" font-size="12">Amazon Elastic Compute Cloud - Comp</text>
<rect x="880" y="82" width="14" height="14" fill="#16a34a"/><text x="900" y="94" font-family="Arial" font-size="12">Amazon FSx</text>
<rect x="880" y="106" width="14" height="14" fill="#dc2626"/><text x="900" y="118" font-family="Arial" font-size="12">Amazon Simple Storage Service</text>
<rect x="880" y="130" width="14" height="14" fill="#ca8a04"/><text x="900" y="142" font-family="Arial" font-size="12">EC2 - Other</text>
<rect x="880" y="154" width="14" height="14" fill="#7c3aed"/><text x="900" y="166" font-family="Arial" font-size="12">Amazon Relational Database Service</text>
<rect x="880" y="178" width="14" height="14" fill="#0891b2"/><text x="900" y="190" font-family="Arial" font-size="12">AWS Support (Developer)</text>
<rect x="880" y="202" width="14" height="14" fill="#db2777"/><text x="900" y="214" font-family="Arial" font-size="12">AWS Security Hub</text>
<rect x="880" y="226" width="14" height="14" fill="#4b5563"/><text x="900" y="238" font-family="Arial" font-size="12">Other</text>
</svg>